<svg width="203" height="55" viewBox="0 0 203 55" fill="none" xmlns="http://www.w3.org/2000/svg">
<path d="M93.5359 17.3848L90.9533 15.7463L70.8984 47.3307L73.481 48.9689L93.5359 17.3848Z" fill="#19867F"/>
<path d="M91.5456 7.43018L88.9631 5.79175L68.9082 37.3761L71.4908 39.0143L91.5456 7.43018Z" fill="#19867F"/>
<path d="M23.3187 24.5182C23.3187 25.7566 23.0353 26.8936 22.4686 27.9292C21.9015 28.9442 21.0311 29.7664 19.8572 30.3959C18.6834 31.0254 17.2259 31.3401 15.4848 31.3401H12.2663V39.0151H7.07422V17.6353H15.4848C17.1854 17.6353 18.6226 17.9297 19.7964 18.5185C20.9703 19.1073 21.8508 19.9194 22.4382 20.9548C23.025 21.9904 23.3185 23.1782 23.3187 24.5182ZM15.0902 27.1984C16.082 27.1984 16.8208 26.9649 17.3066 26.4978C17.7925 26.0308 18.0354 25.3709 18.0354 24.5182C18.0354 23.6658 17.7925 23.0059 17.3066 22.5385C16.8208 22.0712 16.082 21.8377 15.0902 21.838H12.2663V27.1984H15.0902Z" fill="#FE6E00"/>
<path d="M23.3184 30.4411C23.3184 28.6926 23.6429 27.1579 24.2921 25.8372C24.9613 24.5156 25.864 23.4991 26.9999 22.7877C28.1359 22.0764 29.4037 21.7206 30.8034 21.7205C32.0001 21.7205 33.0447 21.9644 33.9372 22.4522C34.8503 22.9401 35.5501 23.5803 36.0366 24.3725V21.9635H41.2397V38.9793H36.0366V36.5702C35.529 37.363 34.8191 38.0031 33.907 38.4906C33.0143 38.9786 31.9696 39.2226 30.7729 39.2226C29.3936 39.2226 28.1359 38.8668 26.9999 38.1553C25.8641 37.4232 24.9615 36.3966 24.2921 35.0753C23.6431 33.735 23.3185 32.1903 23.3184 30.4411ZM36.0366 30.4714C36.0366 29.1701 35.6715 28.1435 34.9413 27.3914C34.2311 26.6395 33.3589 26.2634 32.3246 26.2631C31.2903 26.2628 30.408 26.6389 29.6776 27.3914C28.9677 28.1235 28.6127 29.14 28.6125 30.4411C28.6124 31.7422 28.9674 32.7789 29.6776 33.5513C30.4076 34.3036 31.29 34.6796 32.3246 34.6794C33.3592 34.6793 34.2314 34.3032 34.9413 33.5513C35.6717 32.7993 36.0368 31.7726 36.0366 30.4714Z" fill="#FE6E00"/>
<path d="M48.5156 24.8453C49.1212 23.9104 49.8784 23.179 50.7872 22.6511C51.6956 22.1026 52.7053 21.8284 53.8162 21.8284V27.3444H52.3926C51.1003 27.3444 50.1311 27.6288 49.4849 28.1976C48.8385 28.746 48.5154 29.7212 48.5156 31.1233V39.0161H43.3359V22.0112H48.5156V24.8453Z" fill="#FE6E00"/>
<path d="M53.7109 30.5494C53.7109 28.8009 54.0355 27.2664 54.6846 25.9456C55.354 24.6241 56.2567 23.6077 57.3925 22.8963C58.5283 22.185 59.7962 21.829 61.1963 21.8284C62.393 21.8284 63.4376 22.0723 64.3301 22.56C65.2429 23.048 65.9427 23.6881 66.4295 24.4803V22.0721H71.6322V39.0872H66.4283V36.6783C65.9206 37.471 65.2107 38.1111 64.2984 38.5985C63.406 39.0865 62.3614 39.3305 61.1646 39.3305C59.7852 39.3305 58.5275 38.9747 57.3917 38.2632C56.2559 37.5312 55.3533 36.5046 54.6839 35.1834C54.0354 33.8431 53.7111 32.2985 53.7109 30.5494ZM66.429 30.5797C66.429 29.2785 66.0639 28.2519 65.3338 27.4998C64.6239 26.748 63.7516 26.3719 62.717 26.3715C61.6824 26.3712 60.8 26.7473 60.0699 27.4998C59.3603 28.2318 59.0054 29.2484 59.005 30.5494C59.0047 31.8504 59.3597 32.8871 60.0699 33.6595C60.8 34.4117 61.6824 34.7877 62.717 34.7875C63.7516 34.7874 64.6239 34.4114 65.3338 33.6595C66.0634 32.9075 66.4283 31.8809 66.4283 30.5797H66.429Z" fill="#FE6E00"/>
<path d="M104.227 30.1967C104.226 30.7062 104.196 31.2152 104.136 31.7212H92.3305C92.4126 32.7782 92.7482 33.5913 93.3373 34.1604C93.9472 34.709 94.6895 34.9834 95.5641 34.9836C96.8657 34.9836 97.7708 34.4347 98.2792 33.337H103.831C103.55 34.4486 103.017 35.4811 102.275 36.3555C101.543 37.25 100.618 37.9514 99.4993 38.4594C98.3808 38.9675 97.1301 39.2219 95.747 39.2226C94.0793 39.2226 92.5948 38.8668 91.2935 38.1554C89.9922 37.444 88.9753 36.4274 88.2429 35.1057C87.5105 33.7843 87.1444 32.2394 87.1445 30.4711C87.1447 28.7029 87.5006 27.1581 88.2124 25.8368C88.9445 24.5154 89.9613 23.4991 91.2629 22.7878C92.5646 22.0766 94.0593 21.7208 95.747 21.7205C97.3943 21.7205 98.8585 22.0661 100.14 22.7573C101.421 23.4485 102.418 24.4343 103.129 25.7147C103.862 26.9953 104.228 28.4893 104.227 30.1967ZM98.889 28.8248C98.889 27.9305 98.584 27.219 97.9741 26.6903C97.3642 26.1615 96.6015 25.8973 95.6862 25.8976C94.8116 25.8976 94.0693 26.152 93.4592 26.6607C92.8693 27.1695 92.5032 27.8916 92.3611 28.827L98.889 28.8248Z" fill="#FE6E00"/>
<path d="M110.41 16.5862V39.014H105.17V16.5862H110.41Z" fill="#FE6E00"/>
<path d="M111.668 28.39C111.668 26.2863 112.124 24.4152 113.036 22.7769C113.948 21.1182 115.215 19.8338 116.836 18.9236C118.478 17.9928 120.333 17.5273 122.4 17.5273C124.933 17.5273 127.102 18.1948 128.906 19.5297C130.709 20.8646 131.915 22.6851 132.524 24.9911H126.808C126.383 24.1013 125.775 23.4235 124.984 22.9579C124.214 22.4925 123.332 22.2599 122.339 22.26C120.738 22.26 119.441 22.8163 118.448 23.9287C117.454 25.0412 116.958 26.5279 116.958 28.3888C116.958 30.2505 117.454 31.7373 118.448 32.8491C119.441 33.9609 120.738 34.5171 122.339 34.5178C123.332 34.5178 124.214 34.2851 124.984 33.8199C125.774 33.3548 126.382 32.677 126.808 31.7867H132.524C131.916 34.0928 130.71 35.9137 128.906 37.2494C127.102 38.564 124.934 39.2214 122.4 39.2216C120.333 39.2216 118.478 38.7665 116.836 37.8564C115.215 36.9255 113.948 35.641 113.036 34.0029C112.124 32.3647 111.668 30.4938 111.668 28.39Z" fill="black"/>
<path d="M144.524 21.9204C146.469 21.9204 148.03 22.5669 149.206 23.8601C150.381 25.1325 150.969 26.8904 150.969 29.1336V39.014H145.801V29.831C145.801 28.6995 145.507 27.8205 144.919 27.1941C144.331 26.5677 143.541 26.2545 142.548 26.2545C141.555 26.2545 140.764 26.5677 140.176 27.1941C139.588 27.8205 139.294 28.6995 139.294 29.831V39.014H134.096V16.5862H139.294V24.3757C139.821 23.6282 140.541 23.0321 141.453 22.5874C142.365 22.1427 143.389 21.9204 144.524 21.9204Z" fill="black"/>
<path d="M151.807 30.4412C151.807 28.6927 152.131 27.1581 152.78 25.8374C153.45 24.5158 154.352 23.4993 155.488 22.788C156.624 22.0766 157.892 21.7208 159.292 21.7205C160.489 21.7205 161.533 21.9644 162.426 22.4524C163.338 22.9404 164.038 23.5805 164.525 24.3727V21.9637H169.728V38.9791H164.525V36.5703C164.017 37.363 163.307 38.0031 162.395 38.4906C161.502 38.9782 160.458 39.2222 159.261 39.2226C157.881 39.2226 156.624 38.8668 155.488 38.1553C154.352 37.4233 153.449 36.3966 152.78 35.0754C152.131 33.7341 151.807 32.1894 151.807 30.4412ZM164.525 30.4715C164.525 29.1703 164.16 28.1436 163.43 27.3916C162.72 26.6397 161.848 26.2636 160.813 26.2633C159.778 26.2629 158.896 26.6391 158.166 27.3916C157.456 28.1236 157.101 29.1402 157.101 30.4412C157.101 31.7423 157.456 32.779 158.166 33.5514C158.896 34.3036 159.779 34.6797 160.813 34.6795C161.847 34.6793 162.719 34.3033 163.43 33.5514C164.16 32.7994 164.525 31.7727 164.525 30.4715H164.525Z" fill="black"/>
<path d="M174.512 20.2359C173.599 20.2359 172.848 19.9716 172.259 19.4431C171.69 18.8945 171.406 18.2238 171.406 17.4309C171.406 16.6182 171.691 15.9476 172.259 15.419C172.848 14.8701 173.599 14.5958 174.513 14.5959C175.407 14.5959 176.138 14.8703 176.706 15.419C177.295 15.9476 177.589 16.6182 177.59 17.4309C177.59 18.2238 177.295 18.8945 176.706 19.4431C176.137 19.9716 175.406 20.2359 174.512 20.2359ZM177.102 22.0039V39.015H171.893V22.0039H177.102Z" fill="black"/>
<path d="M189.602 21.8284C191.589 21.8284 193.17 22.4785 194.345 23.7788C195.541 25.0582 196.139 26.8257 196.139 29.0813V39.0161H190.97V29.7825C190.97 28.6448 190.677 27.761 190.089 27.1311C189.501 26.5012 188.711 26.1863 187.717 26.1863C186.725 26.1863 185.934 26.5012 185.346 27.1311C184.758 27.761 184.464 28.6448 184.465 29.7825V39.0161H179.266V22.0112H184.465V24.2664C184.991 23.5148 185.701 22.9256 186.593 22.4988C187.484 22.0519 188.488 21.8284 189.602 21.8284Z" fill="black"/>
</svg>
